<mxfile host="app.diagrams.net" modified="2023-01-19T09:55:31.362Z" agent="5.0 (Windows NT 10.0; Win64; x64) AppleWebKit/537.36 (KHTML, like Gecko) Chrome/107.0.0.0 Safari/537.36" etag="sXrV8KCAtcmAxro5k3jG" version="20.8.5" type="github" pages="2">
  <diagram id="3pYTiaKlT06tIgiQVBjK" name="第 1 页">
    <mxGraphModel dx="2261" dy="1933" grid="1" gridSize="10" guides="1" tooltips="1" connect="1" arrows="1" fold="1" page="1" pageScale="1" pageWidth="827" pageHeight="1169" math="0" shadow="0">
      <root>
        <mxCell id="0" />
        <mxCell id="1" parent="0" />
        <mxCell id="rzi5aH2cpVTfVcX3buW6-171" value="" style="rounded=0;whiteSpace=wrap;html=1;labelBackgroundColor=none;strokeWidth=1;fontSize=14;fontColor=#333333;align=left;fillColor=#f5f5f5;strokeColor=#666666;" parent="1" vertex="1">
          <mxGeometry x="1320" y="360" width="840" height="180" as="geometry" />
        </mxCell>
        <mxCell id="rzi5aH2cpVTfVcX3buW6-153" value="" style="rounded=0;whiteSpace=wrap;html=1;labelBackgroundColor=none;strokeWidth=1;fontSize=14;fontColor=#333333;align=left;fillColor=#f5f5f5;strokeColor=#666666;" parent="1" vertex="1">
          <mxGeometry x="1460" width="160" height="180" as="geometry" />
        </mxCell>
        <mxCell id="rzi5aH2cpVTfVcX3buW6-1" value="" style="rounded=0;whiteSpace=wrap;html=1;fillColor=#dae8fc;strokeColor=#6c8ebf;" parent="1" vertex="1">
          <mxGeometry x="80" y="80" width="40" height="40" as="geometry" />
        </mxCell>
        <mxCell id="rzi5aH2cpVTfVcX3buW6-2" value="" style="rounded=0;whiteSpace=wrap;html=1;fillColor=#dae8fc;strokeColor=#6c8ebf;" parent="1" vertex="1">
          <mxGeometry x="120" y="80" width="40" height="40" as="geometry" />
        </mxCell>
        <mxCell id="rzi5aH2cpVTfVcX3buW6-5" value="&lt;b&gt;......&lt;/b&gt;" style="rounded=0;whiteSpace=wrap;html=1;fillColor=#dae8fc;strokeColor=#6c8ebf;" parent="1" vertex="1">
          <mxGeometry x="160" y="80" width="160" height="40" as="geometry" />
        </mxCell>
        <mxCell id="rzi5aH2cpVTfVcX3buW6-9" value="" style="rounded=0;whiteSpace=wrap;html=1;fillColor=#dae8fc;strokeColor=#6c8ebf;" parent="1" vertex="1">
          <mxGeometry x="320" y="80" width="40" height="40" as="geometry" />
        </mxCell>
        <mxCell id="rzi5aH2cpVTfVcX3buW6-10" value="" style="rounded=0;whiteSpace=wrap;html=1;fillColor=#dae8fc;strokeColor=#6c8ebf;" parent="1" vertex="1">
          <mxGeometry x="360" y="80" width="40" height="40" as="geometry" />
        </mxCell>
        <mxCell id="rzi5aH2cpVTfVcX3buW6-11" value="" style="shape=curlyBracket;whiteSpace=wrap;html=1;rounded=1;flipH=1;labelPosition=right;verticalLabelPosition=middle;align=left;verticalAlign=middle;direction=north;" parent="1" vertex="1">
          <mxGeometry x="80" y="120" width="320" height="20" as="geometry" />
        </mxCell>
        <mxCell id="rzi5aH2cpVTfVcX3buW6-12" value="&lt;b&gt;&lt;font style=&quot;font-size: 14px;&quot;&gt;uint64可以存储64位数据&lt;/font&gt;&lt;/b&gt;" style="text;html=1;align=center;verticalAlign=middle;resizable=0;points=[];autosize=1;strokeColor=none;fillColor=none;" parent="1" vertex="1">
          <mxGeometry x="150" y="155" width="180" height="30" as="geometry" />
        </mxCell>
        <mxCell id="rzi5aH2cpVTfVcX3buW6-33" value="" style="rounded=0;whiteSpace=wrap;html=1;fillColor=#dae8fc;strokeColor=#6c8ebf;" parent="1" vertex="1">
          <mxGeometry x="400" y="80" width="40" height="40" as="geometry" />
        </mxCell>
        <mxCell id="rzi5aH2cpVTfVcX3buW6-34" value="" style="rounded=0;whiteSpace=wrap;html=1;fillColor=#dae8fc;strokeColor=#6c8ebf;" parent="1" vertex="1">
          <mxGeometry x="440" y="80" width="40" height="40" as="geometry" />
        </mxCell>
        <mxCell id="rzi5aH2cpVTfVcX3buW6-35" value="&lt;b&gt;......&lt;/b&gt;" style="rounded=0;whiteSpace=wrap;html=1;fillColor=#dae8fc;strokeColor=#6c8ebf;" parent="1" vertex="1">
          <mxGeometry x="480" y="80" width="160" height="40" as="geometry" />
        </mxCell>
        <mxCell id="rzi5aH2cpVTfVcX3buW6-36" value="" style="rounded=0;whiteSpace=wrap;html=1;fillColor=#dae8fc;strokeColor=#6c8ebf;" parent="1" vertex="1">
          <mxGeometry x="640" y="80" width="40" height="40" as="geometry" />
        </mxCell>
        <mxCell id="rzi5aH2cpVTfVcX3buW6-37" value="" style="rounded=0;whiteSpace=wrap;html=1;fillColor=#dae8fc;strokeColor=#6c8ebf;" parent="1" vertex="1">
          <mxGeometry x="680" y="80" width="40" height="40" as="geometry" />
        </mxCell>
        <mxCell id="rzi5aH2cpVTfVcX3buW6-38" value="" style="shape=curlyBracket;whiteSpace=wrap;html=1;rounded=1;flipH=1;labelPosition=right;verticalLabelPosition=middle;align=left;verticalAlign=middle;direction=north;" parent="1" vertex="1">
          <mxGeometry x="400" y="120" width="320" height="20" as="geometry" />
        </mxCell>
        <mxCell id="rzi5aH2cpVTfVcX3buW6-39" value="&lt;b&gt;&lt;font style=&quot;font-size: 14px;&quot;&gt;uint64可以存储64位数据&lt;/font&gt;&lt;/b&gt;" style="text;html=1;align=center;verticalAlign=middle;resizable=0;points=[];autosize=1;strokeColor=none;fillColor=none;" parent="1" vertex="1">
          <mxGeometry x="470" y="155" width="180" height="30" as="geometry" />
        </mxCell>
        <mxCell id="rzi5aH2cpVTfVcX3buW6-40" value="&lt;b&gt;......&lt;/b&gt;" style="rounded=0;whiteSpace=wrap;html=1;fillColor=#fff2cc;strokeColor=#d6b656;" parent="1" vertex="1">
          <mxGeometry x="720" y="80" width="160" height="40" as="geometry" />
        </mxCell>
        <mxCell id="rzi5aH2cpVTfVcX3buW6-41" value="" style="rounded=0;whiteSpace=wrap;html=1;fillColor=#dae8fc;strokeColor=#6c8ebf;" parent="1" vertex="1">
          <mxGeometry x="880" y="80" width="40" height="40" as="geometry" />
        </mxCell>
        <mxCell id="rzi5aH2cpVTfVcX3buW6-42" value="" style="rounded=0;whiteSpace=wrap;html=1;fillColor=#dae8fc;strokeColor=#6c8ebf;" parent="1" vertex="1">
          <mxGeometry x="920" y="80" width="40" height="40" as="geometry" />
        </mxCell>
        <mxCell id="rzi5aH2cpVTfVcX3buW6-43" value="&lt;b&gt;......&lt;/b&gt;" style="rounded=0;whiteSpace=wrap;html=1;fillColor=#dae8fc;strokeColor=#6c8ebf;" parent="1" vertex="1">
          <mxGeometry x="960" y="80" width="160" height="40" as="geometry" />
        </mxCell>
        <mxCell id="rzi5aH2cpVTfVcX3buW6-44" value="" style="rounded=0;whiteSpace=wrap;html=1;fillColor=#dae8fc;strokeColor=#6c8ebf;" parent="1" vertex="1">
          <mxGeometry x="1120" y="80" width="40" height="40" as="geometry" />
        </mxCell>
        <mxCell id="rzi5aH2cpVTfVcX3buW6-45" value="" style="rounded=0;whiteSpace=wrap;html=1;fillColor=#dae8fc;strokeColor=#6c8ebf;" parent="1" vertex="1">
          <mxGeometry x="1160" y="80" width="40" height="40" as="geometry" />
        </mxCell>
        <mxCell id="rzi5aH2cpVTfVcX3buW6-46" value="" style="shape=curlyBracket;whiteSpace=wrap;html=1;rounded=1;flipH=1;labelPosition=right;verticalLabelPosition=middle;align=left;verticalAlign=middle;direction=north;" parent="1" vertex="1">
          <mxGeometry x="880" y="120" width="320" height="20" as="geometry" />
        </mxCell>
        <mxCell id="rzi5aH2cpVTfVcX3buW6-47" value="&lt;b&gt;&lt;font style=&quot;font-size: 14px;&quot;&gt;uint64可以存储64位数据&lt;/font&gt;&lt;/b&gt;" style="text;html=1;align=center;verticalAlign=middle;resizable=0;points=[];autosize=1;strokeColor=none;fillColor=none;" parent="1" vertex="1">
          <mxGeometry x="950" y="150" width="180" height="30" as="geometry" />
        </mxCell>
        <mxCell id="rzi5aH2cpVTfVcX3buW6-48" value="0" style="rounded=0;whiteSpace=wrap;html=1;fontSize=14;fillColor=#f8cecc;strokeColor=#b85450;strokeWidth=2;" parent="1" vertex="1">
          <mxGeometry x="220" y="240" width="40" height="40" as="geometry" />
        </mxCell>
        <mxCell id="rzi5aH2cpVTfVcX3buW6-49" value="1" style="rounded=0;whiteSpace=wrap;html=1;fontSize=14;fillColor=#f8cecc;strokeColor=#b85450;strokeWidth=2;" parent="1" vertex="1">
          <mxGeometry x="540" y="240" width="40" height="40" as="geometry" />
        </mxCell>
        <mxCell id="rzi5aH2cpVTfVcX3buW6-50" value="N" style="rounded=0;whiteSpace=wrap;html=1;fontSize=14;fillColor=#f8cecc;strokeColor=#b85450;strokeWidth=2;" parent="1" vertex="1">
          <mxGeometry x="1020" y="240" width="40" height="40" as="geometry" />
        </mxCell>
        <mxCell id="rzi5aH2cpVTfVcX3buW6-51" value="" style="endArrow=classic;html=1;rounded=0;fontSize=14;entryX=0.5;entryY=0;entryDx=0;entryDy=0;" parent="1" target="rzi5aH2cpVTfVcX3buW6-50" edge="1">
          <mxGeometry width="50" height="50" relative="1" as="geometry">
            <mxPoint x="1040" y="200" as="sourcePoint" />
            <mxPoint x="120" y="320" as="targetPoint" />
          </mxGeometry>
        </mxCell>
        <mxCell id="rzi5aH2cpVTfVcX3buW6-52" value="" style="endArrow=classic;html=1;rounded=0;fontSize=14;entryX=0.5;entryY=0;entryDx=0;entryDy=0;" parent="1" target="rzi5aH2cpVTfVcX3buW6-49" edge="1">
          <mxGeometry width="50" height="50" relative="1" as="geometry">
            <mxPoint x="560" y="200" as="sourcePoint" />
            <mxPoint x="130" y="330" as="targetPoint" />
          </mxGeometry>
        </mxCell>
        <mxCell id="rzi5aH2cpVTfVcX3buW6-53" value="" style="endArrow=classic;html=1;rounded=0;fontSize=14;" parent="1" target="rzi5aH2cpVTfVcX3buW6-48" edge="1">
          <mxGeometry width="50" height="50" relative="1" as="geometry">
            <mxPoint x="240" y="200" as="sourcePoint" />
            <mxPoint x="140" y="340" as="targetPoint" />
          </mxGeometry>
        </mxCell>
        <mxCell id="rzi5aH2cpVTfVcX3buW6-54" value="&lt;font style=&quot;font-size: 14px;&quot;&gt;&lt;b style=&quot;&quot;&gt;存储需要的uint64的个数m_len=(&lt;span style=&quot;font-family: Consolas, &amp;quot;Courier New&amp;quot;, monospace;&quot;&gt;m_nbits&lt;/span&gt;+ (64 - 1)) / 64即对64整除向上取整&lt;/b&gt;&lt;/font&gt;" style="text;html=1;strokeColor=none;fillColor=none;align=left;verticalAlign=middle;whiteSpace=wrap;rounded=0;strokeWidth=2;fontSize=14;" parent="1" vertex="1">
          <mxGeometry x="80" width="480" height="40" as="geometry" />
        </mxCell>
        <mxCell id="rzi5aH2cpVTfVcX3buW6-56" value="&lt;b&gt;假设nbits=6，则m_len=1，对于Get(3)&lt;/b&gt;" style="text;html=1;strokeColor=none;fillColor=none;align=left;verticalAlign=middle;whiteSpace=wrap;rounded=0;labelBackgroundColor=none;strokeWidth=1;fontSize=14;fontColor=#000000;" parent="1" vertex="1">
          <mxGeometry x="80" y="360" width="280" height="40" as="geometry" />
        </mxCell>
        <mxCell id="rzi5aH2cpVTfVcX3buW6-57" value="&lt;b&gt;数组索引&lt;/b&gt;" style="text;html=1;strokeColor=none;fillColor=none;align=center;verticalAlign=middle;whiteSpace=wrap;rounded=0;labelBackgroundColor=none;strokeWidth=1;fontSize=14;fontColor=#000000;" parent="1" vertex="1">
          <mxGeometry x="-40" y="240" width="80" height="40" as="geometry" />
        </mxCell>
        <mxCell id="rzi5aH2cpVTfVcX3buW6-58" value="&lt;b&gt;存储数组&lt;/b&gt;" style="text;html=1;strokeColor=none;fillColor=none;align=center;verticalAlign=middle;whiteSpace=wrap;rounded=0;labelBackgroundColor=none;strokeWidth=1;fontSize=14;fontColor=#000000;" parent="1" vertex="1">
          <mxGeometry x="-40" y="80" width="80" height="40" as="geometry" />
        </mxCell>
        <mxCell id="rzi5aH2cpVTfVcX3buW6-68" value="0/1" style="rounded=0;whiteSpace=wrap;html=1;fillColor=#f8cecc;strokeColor=#b85450;" parent="1" vertex="1">
          <mxGeometry x="160" y="580" width="40" height="40" as="geometry" />
        </mxCell>
        <mxCell id="rzi5aH2cpVTfVcX3buW6-69" value="" style="endArrow=classic;html=1;rounded=0;fontSize=14;fontColor=#000000;entryX=0.5;entryY=0;entryDx=0;entryDy=0;exitX=0.5;exitY=1;exitDx=0;exitDy=0;" parent="1" source="rzi5aH2cpVTfVcX3buW6-61" target="rzi5aH2cpVTfVcX3buW6-68" edge="1">
          <mxGeometry width="50" height="50" relative="1" as="geometry">
            <mxPoint x="60" y="590" as="sourcePoint" />
            <mxPoint x="110" y="540" as="targetPoint" />
          </mxGeometry>
        </mxCell>
        <mxCell id="rzi5aH2cpVTfVcX3buW6-70" value="&lt;b&gt;由于pos= 3&lt;br&gt;&lt;div style=&quot;&quot;&gt;&lt;b style=&quot;background-color: initial;&quot;&gt;idx=3/64 =0&lt;/b&gt;&lt;/div&gt;&lt;div style=&quot;&quot;&gt;&lt;b style=&quot;background-color: initial;&quot;&gt;mask = 1 &amp;lt;&amp;lt; (3%64) = 8&lt;/b&gt;&lt;/div&gt;&lt;div style=&quot;&quot;&gt;&lt;b style=&quot;background-color: initial;&quot;&gt;当前位置的数据为m_vec[0] &amp;amp; 8，即第三位的位信息&lt;/b&gt;&lt;/div&gt;&lt;/b&gt;" style="text;html=1;strokeColor=none;fillColor=none;align=left;verticalAlign=middle;whiteSpace=wrap;rounded=0;labelBackgroundColor=none;strokeWidth=1;fontSize=14;fontColor=#000000;" parent="1" vertex="1">
          <mxGeometry x="200" y="510" width="360" height="60" as="geometry" />
        </mxCell>
        <mxCell id="rzi5aH2cpVTfVcX3buW6-71" value="" style="group;strokeWidth=1;fillColor=#f8cecc;strokeColor=#b85450;container=0;" parent="1" vertex="1" connectable="0">
          <mxGeometry x="80" y="460" width="480" height="40" as="geometry" />
        </mxCell>
        <mxCell id="rzi5aH2cpVTfVcX3buW6-59" value="" style="rounded=0;whiteSpace=wrap;html=1;fillColor=#dae8fc;strokeColor=#6c8ebf;container=0;" parent="1" vertex="1">
          <mxGeometry x="80" y="460" width="40" height="40" as="geometry" />
        </mxCell>
        <mxCell id="rzi5aH2cpVTfVcX3buW6-60" value="" style="rounded=0;whiteSpace=wrap;html=1;fillColor=#dae8fc;strokeColor=#6c8ebf;container=0;" parent="1" vertex="1">
          <mxGeometry x="120" y="460" width="40" height="40" as="geometry" />
        </mxCell>
        <mxCell id="rzi5aH2cpVTfVcX3buW6-61" value="" style="rounded=0;whiteSpace=wrap;html=1;fillColor=#f8cecc;strokeColor=#b85450;container=0;" parent="1" vertex="1">
          <mxGeometry x="160" y="460" width="40" height="40" as="geometry" />
        </mxCell>
        <mxCell id="rzi5aH2cpVTfVcX3buW6-62" value="" style="rounded=0;whiteSpace=wrap;html=1;fillColor=#dae8fc;strokeColor=#6c8ebf;container=0;" parent="1" vertex="1">
          <mxGeometry x="200" y="460" width="40" height="40" as="geometry" />
        </mxCell>
        <mxCell id="rzi5aH2cpVTfVcX3buW6-63" value="" style="rounded=0;whiteSpace=wrap;html=1;fillColor=#dae8fc;strokeColor=#6c8ebf;container=0;" parent="1" vertex="1">
          <mxGeometry x="240" y="460" width="40" height="40" as="geometry" />
        </mxCell>
        <mxCell id="rzi5aH2cpVTfVcX3buW6-64" value="" style="rounded=0;whiteSpace=wrap;html=1;fillColor=#dae8fc;strokeColor=#6c8ebf;container=0;" parent="1" vertex="1">
          <mxGeometry x="280" y="460" width="40" height="40" as="geometry" />
        </mxCell>
        <mxCell id="rzi5aH2cpVTfVcX3buW6-65" value="" style="rounded=0;whiteSpace=wrap;html=1;fillColor=#f5f5f5;strokeColor=#666666;fontColor=#333333;container=0;" parent="1" vertex="1">
          <mxGeometry x="320" y="460" width="240" height="40" as="geometry" />
        </mxCell>
        <mxCell id="rzi5aH2cpVTfVcX3buW6-72" value="&lt;b&gt;假设nbits=68，则m_len=(126 + 63)/64 =2，对于Get(65)&lt;/b&gt;" style="text;html=1;strokeColor=none;fillColor=none;align=left;verticalAlign=middle;whiteSpace=wrap;rounded=0;labelBackgroundColor=none;strokeWidth=1;fontSize=14;fontColor=#000000;" parent="1" vertex="1">
          <mxGeometry x="80" y="700" width="520" height="40" as="geometry" />
        </mxCell>
        <mxCell id="rzi5aH2cpVTfVcX3buW6-73" value="0/1" style="rounded=0;whiteSpace=wrap;html=1;fillColor=#f8cecc;strokeColor=#b85450;" parent="1" vertex="1">
          <mxGeometry x="480" y="920" width="40" height="40" as="geometry" />
        </mxCell>
        <mxCell id="rzi5aH2cpVTfVcX3buW6-74" value="" style="endArrow=classic;html=1;rounded=0;fontSize=14;fontColor=#000000;entryX=0.5;entryY=0;entryDx=0;entryDy=0;exitX=0.5;exitY=1;exitDx=0;exitDy=0;" parent="1" source="rzi5aH2cpVTfVcX3buW6-85" target="rzi5aH2cpVTfVcX3buW6-73" edge="1">
          <mxGeometry width="50" height="50" relative="1" as="geometry">
            <mxPoint x="60" y="930" as="sourcePoint" />
            <mxPoint x="110" y="880" as="targetPoint" />
          </mxGeometry>
        </mxCell>
        <mxCell id="rzi5aH2cpVTfVcX3buW6-75" value="&lt;b&gt;由于pos= 65&lt;br&gt;&lt;div style=&quot;&quot;&gt;&lt;b style=&quot;background-color: initial;&quot;&gt;idx=65/64 =1&lt;/b&gt;&lt;/div&gt;&lt;div style=&quot;&quot;&gt;&lt;b style=&quot;background-color: initial;&quot;&gt;mask = 1 &amp;lt;&amp;lt; (65%64) = 1&lt;/b&gt;&lt;/div&gt;&lt;div style=&quot;&quot;&gt;&lt;b style=&quot;background-color: initial;&quot;&gt;当前位置的数据为m_vec[1] &amp;amp; 1，即第1位的位信息&lt;/b&gt;&lt;/div&gt;&lt;/b&gt;" style="text;html=1;strokeColor=none;fillColor=none;align=left;verticalAlign=middle;whiteSpace=wrap;rounded=0;labelBackgroundColor=none;strokeWidth=1;fontSize=14;fontColor=#000000;" parent="1" vertex="1">
          <mxGeometry x="520" y="850" width="360" height="60" as="geometry" />
        </mxCell>
        <mxCell id="rzi5aH2cpVTfVcX3buW6-77" value="" style="rounded=0;whiteSpace=wrap;html=1;fillColor=#dae8fc;strokeColor=#6c8ebf;container=0;" parent="1" vertex="1">
          <mxGeometry x="80" y="800" width="40" height="40" as="geometry" />
        </mxCell>
        <mxCell id="rzi5aH2cpVTfVcX3buW6-78" value="" style="rounded=0;whiteSpace=wrap;html=1;fillColor=#dae8fc;strokeColor=#6c8ebf;container=0;" parent="1" vertex="1">
          <mxGeometry x="120" y="800" width="40" height="40" as="geometry" />
        </mxCell>
        <mxCell id="rzi5aH2cpVTfVcX3buW6-79" value="" style="rounded=0;whiteSpace=wrap;html=1;fillColor=#dae8fc;strokeColor=#6c8ebf;container=0;" parent="1" vertex="1">
          <mxGeometry x="160" y="800" width="40" height="40" as="geometry" />
        </mxCell>
        <mxCell id="rzi5aH2cpVTfVcX3buW6-80" value="" style="rounded=0;whiteSpace=wrap;html=1;fillColor=#dae8fc;strokeColor=#6c8ebf;container=0;" parent="1" vertex="1">
          <mxGeometry x="200" y="800" width="40" height="40" as="geometry" />
        </mxCell>
        <mxCell id="rzi5aH2cpVTfVcX3buW6-81" value="" style="rounded=0;whiteSpace=wrap;html=1;fillColor=#dae8fc;strokeColor=#6c8ebf;container=0;" parent="1" vertex="1">
          <mxGeometry x="240" y="800" width="40" height="40" as="geometry" />
        </mxCell>
        <mxCell id="rzi5aH2cpVTfVcX3buW6-82" value="" style="rounded=0;whiteSpace=wrap;html=1;fillColor=#dae8fc;strokeColor=#6c8ebf;container=0;" parent="1" vertex="1">
          <mxGeometry x="280" y="800" width="40" height="40" as="geometry" />
        </mxCell>
        <mxCell id="rzi5aH2cpVTfVcX3buW6-83" value="......" style="rounded=0;whiteSpace=wrap;html=1;fillColor=#fff2cc;strokeColor=#d6b656;container=0;" parent="1" vertex="1">
          <mxGeometry x="320" y="800" width="160" height="40" as="geometry" />
        </mxCell>
        <mxCell id="rzi5aH2cpVTfVcX3buW6-85" value="" style="rounded=0;whiteSpace=wrap;html=1;fillColor=#dae8fc;strokeColor=#6c8ebf;container=0;" parent="1" vertex="1">
          <mxGeometry x="480" y="800" width="40" height="40" as="geometry" />
        </mxCell>
        <mxCell id="rzi5aH2cpVTfVcX3buW6-86" value="" style="rounded=0;whiteSpace=wrap;html=1;fillColor=#dae8fc;strokeColor=#6c8ebf;container=0;" parent="1" vertex="1">
          <mxGeometry x="520" y="800" width="40" height="40" as="geometry" />
        </mxCell>
        <mxCell id="rzi5aH2cpVTfVcX3buW6-87" value="" style="rounded=0;whiteSpace=wrap;html=1;fillColor=#dae8fc;strokeColor=#6c8ebf;container=0;" parent="1" vertex="1">
          <mxGeometry x="560" y="800" width="40" height="40" as="geometry" />
        </mxCell>
        <mxCell id="rzi5aH2cpVTfVcX3buW6-88" value="" style="rounded=0;whiteSpace=wrap;html=1;fillColor=#dae8fc;strokeColor=#6c8ebf;container=0;" parent="1" vertex="1">
          <mxGeometry x="600" y="800" width="40" height="40" as="geometry" />
        </mxCell>
        <mxCell id="rzi5aH2cpVTfVcX3buW6-91" value="......" style="rounded=0;whiteSpace=wrap;html=1;fillColor=#f5f5f5;strokeColor=#666666;fontColor=#333333;container=0;" parent="1" vertex="1">
          <mxGeometry x="640" y="800" width="240" height="40" as="geometry" />
        </mxCell>
        <mxCell id="rzi5aH2cpVTfVcX3buW6-93" value="&lt;b&gt;&lt;font style=&quot;font-size: 14px;&quot;&gt;uint64可以存储64位数据&lt;/font&gt;&lt;/b&gt;" style="text;html=1;align=center;verticalAlign=middle;resizable=0;points=[];autosize=1;strokeColor=none;fillColor=none;" parent="1" vertex="1">
          <mxGeometry x="200" y="740" width="180" height="30" as="geometry" />
        </mxCell>
        <mxCell id="rzi5aH2cpVTfVcX3buW6-94" value="" style="shape=curlyBracket;whiteSpace=wrap;html=1;rounded=1;labelPosition=left;verticalLabelPosition=middle;align=right;verticalAlign=middle;labelBackgroundColor=none;strokeWidth=1;fontSize=14;fontColor=#000000;direction=south;" parent="1" vertex="1">
          <mxGeometry x="80" y="780" width="400" height="20" as="geometry" />
        </mxCell>
        <mxCell id="rzi5aH2cpVTfVcX3buW6-95" value="" style="shape=curlyBracket;whiteSpace=wrap;html=1;rounded=1;labelPosition=left;verticalLabelPosition=middle;align=right;verticalAlign=middle;labelBackgroundColor=none;strokeWidth=1;fontSize=14;fontColor=#000000;direction=south;" parent="1" vertex="1">
          <mxGeometry x="480" y="780" width="400" height="20" as="geometry" />
        </mxCell>
        <mxCell id="rzi5aH2cpVTfVcX3buW6-96" value="&lt;b&gt;&lt;font style=&quot;font-size: 14px;&quot;&gt;uint64可以存储64位数据&lt;/font&gt;&lt;/b&gt;" style="text;html=1;align=center;verticalAlign=middle;resizable=0;points=[];autosize=1;strokeColor=none;fillColor=none;" parent="1" vertex="1">
          <mxGeometry x="600" y="740" width="180" height="30" as="geometry" />
        </mxCell>
        <mxCell id="rzi5aH2cpVTfVcX3buW6-97" value="" style="shape=curlyBracket;whiteSpace=wrap;html=1;rounded=1;labelPosition=left;verticalLabelPosition=middle;align=right;verticalAlign=middle;labelBackgroundColor=none;strokeWidth=1;fontSize=14;fontColor=#000000;direction=south;" parent="1" vertex="1">
          <mxGeometry x="80" y="440" width="480" height="20" as="geometry" />
        </mxCell>
        <mxCell id="rzi5aH2cpVTfVcX3buW6-98" value="&lt;b&gt;&lt;font style=&quot;font-size: 14px;&quot;&gt;uint64可以存储64位数据&lt;/font&gt;&lt;/b&gt;" style="text;html=1;align=center;verticalAlign=middle;resizable=0;points=[];autosize=1;strokeColor=none;fillColor=none;" parent="1" vertex="1">
          <mxGeometry x="240" y="400" width="180" height="30" as="geometry" />
        </mxCell>
        <mxCell id="rzi5aH2cpVTfVcX3buW6-99" value="&lt;h1&gt;BitVector数据结构&lt;/h1&gt;&lt;p&gt;l&lt;/p&gt;" style="text;html=1;strokeColor=none;fillColor=none;spacing=5;spacingTop=-20;whiteSpace=wrap;overflow=hidden;rounded=0;labelBackgroundColor=none;strokeWidth=1;fontSize=14;fontColor=#000000;" parent="1" vertex="1">
          <mxGeometry y="-120" width="560" height="80" as="geometry" />
        </mxCell>
        <mxCell id="rzi5aH2cpVTfVcX3buW6-107" style="edgeStyle=orthogonalEdgeStyle;rounded=0;orthogonalLoop=1;jettySize=auto;html=1;exitX=0.5;exitY=1;exitDx=0;exitDy=0;entryX=0.5;entryY=0;entryDx=0;entryDy=0;fontSize=14;fontColor=#000000;" parent="1" source="rzi5aH2cpVTfVcX3buW6-158" target="rzi5aH2cpVTfVcX3buW6-106" edge="1">
          <mxGeometry relative="1" as="geometry" />
        </mxCell>
        <mxCell id="rzi5aH2cpVTfVcX3buW6-106" value="Prev" style="rounded=0;whiteSpace=wrap;html=1;fontSize=14;fillColor=#f8cecc;strokeColor=#b85450;strokeWidth=2;" parent="1" vertex="1">
          <mxGeometry x="1360" y="200" width="40" height="40" as="geometry" />
        </mxCell>
        <mxCell id="rzi5aH2cpVTfVcX3buW6-119" value="" style="group" parent="1" vertex="1" connectable="0">
          <mxGeometry x="1480" y="40" width="120" height="80" as="geometry" />
        </mxCell>
        <mxCell id="rzi5aH2cpVTfVcX3buW6-100" value="&lt;b&gt;BitVector&lt;/b&gt;" style="rounded=0;whiteSpace=wrap;html=1;labelBackgroundColor=none;strokeWidth=1;fontSize=14;fillColor=#dae8fc;strokeColor=#6c8ebf;" parent="rzi5aH2cpVTfVcX3buW6-119" vertex="1">
          <mxGeometry y="40" width="120" height="40" as="geometry" />
        </mxCell>
        <mxCell id="rzi5aH2cpVTfVcX3buW6-118" value="&lt;b&gt;ULONG offset&lt;/b&gt;" style="rounded=0;whiteSpace=wrap;html=1;labelBackgroundColor=none;strokeWidth=1;fontSize=14;fillColor=#dae8fc;strokeColor=#6c8ebf;" parent="rzi5aH2cpVTfVcX3buW6-119" vertex="1">
          <mxGeometry width="120" height="40" as="geometry" />
        </mxCell>
        <mxCell id="rzi5aH2cpVTfVcX3buW6-120" value="" style="group" parent="1" vertex="1" connectable="0">
          <mxGeometry x="1320" y="40" width="120" height="80" as="geometry" />
        </mxCell>
        <mxCell id="rzi5aH2cpVTfVcX3buW6-121" value="&lt;b&gt;BitVector&lt;/b&gt;" style="rounded=0;whiteSpace=wrap;html=1;labelBackgroundColor=none;strokeWidth=1;fontSize=14;fillColor=#dae8fc;strokeColor=#6c8ebf;" parent="rzi5aH2cpVTfVcX3buW6-120" vertex="1">
          <mxGeometry y="40" width="120" height="40" as="geometry" />
        </mxCell>
        <mxCell id="rzi5aH2cpVTfVcX3buW6-122" value="&lt;b&gt;ULONG offset&lt;/b&gt;" style="rounded=0;whiteSpace=wrap;html=1;labelBackgroundColor=none;strokeWidth=1;fontSize=14;fillColor=#dae8fc;strokeColor=#6c8ebf;" parent="rzi5aH2cpVTfVcX3buW6-120" vertex="1">
          <mxGeometry width="120" height="40" as="geometry" />
        </mxCell>
        <mxCell id="rzi5aH2cpVTfVcX3buW6-126" value="" style="group" parent="1" vertex="1" connectable="0">
          <mxGeometry x="1640" y="40" width="120" height="80" as="geometry" />
        </mxCell>
        <mxCell id="rzi5aH2cpVTfVcX3buW6-127" value="&lt;b&gt;BitVector&lt;/b&gt;" style="rounded=0;whiteSpace=wrap;html=1;labelBackgroundColor=none;strokeWidth=1;fontSize=14;fillColor=#dae8fc;strokeColor=#6c8ebf;" parent="rzi5aH2cpVTfVcX3buW6-126" vertex="1">
          <mxGeometry y="40" width="120" height="40" as="geometry" />
        </mxCell>
        <mxCell id="rzi5aH2cpVTfVcX3buW6-128" value="&lt;b&gt;ULONG offset&lt;/b&gt;" style="rounded=0;whiteSpace=wrap;html=1;labelBackgroundColor=none;strokeWidth=1;fontSize=14;fillColor=#dae8fc;strokeColor=#6c8ebf;" parent="rzi5aH2cpVTfVcX3buW6-126" vertex="1">
          <mxGeometry width="120" height="40" as="geometry" />
        </mxCell>
        <mxCell id="rzi5aH2cpVTfVcX3buW6-132" style="edgeStyle=orthogonalEdgeStyle;rounded=0;orthogonalLoop=1;jettySize=auto;html=1;exitX=1;exitY=1;exitDx=0;exitDy=0;entryX=0;entryY=1;entryDx=0;entryDy=0;fontSize=14;fontColor=#000000;" parent="1" source="rzi5aH2cpVTfVcX3buW6-122" target="rzi5aH2cpVTfVcX3buW6-118" edge="1">
          <mxGeometry relative="1" as="geometry">
            <Array as="points">
              <mxPoint x="1460" y="80" />
              <mxPoint x="1460" y="80" />
            </Array>
          </mxGeometry>
        </mxCell>
        <mxCell id="rzi5aH2cpVTfVcX3buW6-133" style="edgeStyle=orthogonalEdgeStyle;rounded=0;orthogonalLoop=1;jettySize=auto;html=1;exitX=1;exitY=0;exitDx=0;exitDy=0;entryX=0;entryY=0;entryDx=0;entryDy=0;fontSize=14;fontColor=#000000;" parent="1" source="rzi5aH2cpVTfVcX3buW6-100" edge="1">
          <mxGeometry relative="1" as="geometry">
            <mxPoint x="1640" y="80" as="targetPoint" />
            <Array as="points">
              <mxPoint x="1620" y="80" />
              <mxPoint x="1620" y="80" />
            </Array>
          </mxGeometry>
        </mxCell>
        <mxCell id="rzi5aH2cpVTfVcX3buW6-139" value="offset=0" style="rounded=0;whiteSpace=wrap;html=1;labelBackgroundColor=none;strokeWidth=1;fontSize=14;fillColor=#d5e8d4;strokeColor=#82b366;" parent="1" vertex="1">
          <mxGeometry x="1360" y="400" width="120" height="40" as="geometry" />
        </mxCell>
        <mxCell id="rzi5aH2cpVTfVcX3buW6-144" style="edgeStyle=orthogonalEdgeStyle;rounded=0;orthogonalLoop=1;jettySize=auto;html=1;exitX=0.5;exitY=1;exitDx=0;exitDy=0;entryX=0.5;entryY=0;entryDx=0;entryDy=0;fontSize=14;fontColor=#000000;endArrow=none;endFill=0;" parent="1" source="rzi5aH2cpVTfVcX3buW6-140" edge="1">
          <mxGeometry relative="1" as="geometry">
            <mxPoint x="1580" y="480" as="targetPoint" />
          </mxGeometry>
        </mxCell>
        <mxCell id="rzi5aH2cpVTfVcX3buW6-140" value="offset=1" style="rounded=0;whiteSpace=wrap;html=1;labelBackgroundColor=none;strokeWidth=1;fontSize=14;fillColor=#d5e8d4;strokeColor=#82b366;" parent="1" vertex="1">
          <mxGeometry x="1520" y="400" width="120" height="40" as="geometry" />
        </mxCell>
        <mxCell id="rzi5aH2cpVTfVcX3buW6-145" style="edgeStyle=orthogonalEdgeStyle;rounded=0;orthogonalLoop=1;jettySize=auto;html=1;entryX=0.5;entryY=0;entryDx=0;entryDy=0;fontSize=14;fontColor=#000000;endArrow=none;endFill=0;" parent="1" source="rzi5aH2cpVTfVcX3buW6-141" edge="1">
          <mxGeometry relative="1" as="geometry">
            <mxPoint x="1900" y="480" as="targetPoint" />
          </mxGeometry>
        </mxCell>
        <mxCell id="rzi5aH2cpVTfVcX3buW6-141" value="offset=N-1" style="rounded=0;whiteSpace=wrap;html=1;labelBackgroundColor=none;strokeWidth=1;fontSize=14;fillColor=#d5e8d4;strokeColor=#82b366;" parent="1" vertex="1">
          <mxGeometry x="1840" y="400" width="120" height="40" as="geometry" />
        </mxCell>
        <mxCell id="rzi5aH2cpVTfVcX3buW6-146" style="edgeStyle=orthogonalEdgeStyle;rounded=0;orthogonalLoop=1;jettySize=auto;html=1;fontSize=14;fontColor=#000000;endArrow=none;endFill=0;" parent="1" source="rzi5aH2cpVTfVcX3buW6-142" edge="1">
          <mxGeometry relative="1" as="geometry">
            <mxPoint x="2060" y="480" as="targetPoint" />
          </mxGeometry>
        </mxCell>
        <mxCell id="rzi5aH2cpVTfVcX3buW6-142" value="offset=N" style="rounded=0;whiteSpace=wrap;html=1;labelBackgroundColor=none;strokeWidth=1;fontSize=14;fillColor=#d5e8d4;strokeColor=#82b366;" parent="1" vertex="1">
          <mxGeometry x="2000" y="400" width="120" height="40" as="geometry" />
        </mxCell>
        <mxCell id="rzi5aH2cpVTfVcX3buW6-143" value="" style="endArrow=none;html=1;rounded=0;fontSize=14;fontColor=#000000;entryX=0.5;entryY=1;entryDx=0;entryDy=0;exitX=0.5;exitY=0;exitDx=0;exitDy=0;strokeWidth=1;" parent="1" target="rzi5aH2cpVTfVcX3buW6-139" edge="1">
          <mxGeometry width="50" height="50" relative="1" as="geometry">
            <mxPoint x="1420" y="480" as="sourcePoint" />
            <mxPoint x="1440" y="440" as="targetPoint" />
          </mxGeometry>
        </mxCell>
        <mxCell id="rzi5aH2cpVTfVcX3buW6-148" value="Next" style="rounded=0;whiteSpace=wrap;html=1;fontSize=14;fillColor=#f8cecc;strokeColor=#b85450;strokeWidth=2;" parent="1" vertex="1">
          <mxGeometry x="1680" y="200" width="40" height="40" as="geometry" />
        </mxCell>
        <mxCell id="rzi5aH2cpVTfVcX3buW6-149" value="" style="shape=curlyBracket;whiteSpace=wrap;html=1;rounded=1;labelPosition=left;verticalLabelPosition=middle;align=right;verticalAlign=middle;labelBackgroundColor=none;strokeWidth=1;fontSize=14;fontColor=#000000;direction=north;size=0.5;" parent="1" vertex="1">
          <mxGeometry x="1380" y="240" width="320" height="20" as="geometry" />
        </mxCell>
        <mxCell id="rzi5aH2cpVTfVcX3buW6-152" value="prev和Next指针通过SLink结构存储" style="text;html=1;strokeColor=none;fillColor=none;align=center;verticalAlign=middle;whiteSpace=wrap;rounded=0;labelBackgroundColor=none;strokeWidth=1;fontSize=14;fontColor=#000000;" parent="1" vertex="1">
          <mxGeometry x="1410" y="260" width="260" height="30" as="geometry" />
        </mxCell>
        <mxCell id="rzi5aH2cpVTfVcX3buW6-154" value="&lt;b&gt;BitSetLink结构&lt;/b&gt;" style="text;html=1;strokeColor=none;fillColor=none;align=left;verticalAlign=middle;whiteSpace=wrap;rounded=0;labelBackgroundColor=none;strokeWidth=1;fontSize=14;fontColor=#000000;" parent="1" vertex="1">
          <mxGeometry x="1460" width="110" height="30" as="geometry" />
        </mxCell>
        <mxCell id="rzi5aH2cpVTfVcX3buW6-157" value="&lt;b&gt;Slink m_link&lt;/b&gt;" style="rounded=0;whiteSpace=wrap;html=1;labelBackgroundColor=none;strokeWidth=1;fontSize=14;fillColor=#dae8fc;strokeColor=#6c8ebf;" parent="1" vertex="1">
          <mxGeometry x="1480" y="120" width="120" height="40" as="geometry" />
        </mxCell>
        <mxCell id="rzi5aH2cpVTfVcX3buW6-158" value="&lt;b&gt;Slink m_link&lt;/b&gt;" style="rounded=0;whiteSpace=wrap;html=1;labelBackgroundColor=none;strokeWidth=1;fontSize=14;fillColor=#dae8fc;strokeColor=#6c8ebf;" parent="1" vertex="1">
          <mxGeometry x="1320" y="120" width="120" height="40" as="geometry" />
        </mxCell>
        <mxCell id="rzi5aH2cpVTfVcX3buW6-160" style="edgeStyle=orthogonalEdgeStyle;rounded=0;orthogonalLoop=1;jettySize=auto;html=1;exitX=0.5;exitY=1;exitDx=0;exitDy=0;entryX=0.5;entryY=0;entryDx=0;entryDy=0;strokeWidth=1;fontSize=14;fontColor=#000000;endArrow=classicThin;endFill=1;startArrow=none;startFill=0;" parent="1" source="rzi5aH2cpVTfVcX3buW6-159" target="rzi5aH2cpVTfVcX3buW6-148" edge="1">
          <mxGeometry relative="1" as="geometry" />
        </mxCell>
        <mxCell id="rzi5aH2cpVTfVcX3buW6-159" value="&lt;b&gt;Slink m_link&lt;/b&gt;" style="rounded=0;whiteSpace=wrap;html=1;labelBackgroundColor=none;strokeWidth=1;fontSize=14;fillColor=#dae8fc;strokeColor=#6c8ebf;" parent="1" vertex="1">
          <mxGeometry x="1640" y="120" width="120" height="40" as="geometry" />
        </mxCell>
        <mxCell id="rzi5aH2cpVTfVcX3buW6-161" value="BitSet是由BitSetLink组成的单向链表，BitSetLink由BitVector组成，offset代表其在单向链表中的位置偏移量。" style="text;html=1;strokeColor=none;fillColor=none;align=left;verticalAlign=middle;whiteSpace=wrap;rounded=0;labelBackgroundColor=none;strokeWidth=1;fontSize=14;fontColor=#000000;" parent="1" vertex="1">
          <mxGeometry x="1320" y="-80" width="480" height="70" as="geometry" />
        </mxCell>
        <mxCell id="rzi5aH2cpVTfVcX3buW6-167" style="edgeStyle=orthogonalEdgeStyle;rounded=0;orthogonalLoop=1;jettySize=auto;html=1;exitX=1;exitY=0.5;exitDx=0;exitDy=0;entryX=0;entryY=0.5;entryDx=0;entryDy=0;strokeWidth=1;fontSize=14;fontColor=#000000;startArrow=none;startFill=0;endArrow=classicThin;endFill=1;" parent="1" source="rzi5aH2cpVTfVcX3buW6-162" target="rzi5aH2cpVTfVcX3buW6-163" edge="1">
          <mxGeometry relative="1" as="geometry" />
        </mxCell>
        <mxCell id="rzi5aH2cpVTfVcX3buW6-162" value="BitSetLink" style="rounded=0;whiteSpace=wrap;html=1;labelBackgroundColor=none;strokeWidth=1;fontSize=14;fillColor=#dae8fc;strokeColor=#6c8ebf;" parent="1" vertex="1">
          <mxGeometry x="1360" y="480" width="120" height="40" as="geometry" />
        </mxCell>
        <mxCell id="rzi5aH2cpVTfVcX3buW6-168" style="edgeStyle=orthogonalEdgeStyle;rounded=0;orthogonalLoop=1;jettySize=auto;html=1;exitX=1;exitY=0.5;exitDx=0;exitDy=0;entryX=0;entryY=0.5;entryDx=0;entryDy=0;strokeWidth=1;fontSize=14;fontColor=#000000;startArrow=none;startFill=0;endArrow=classicThin;endFill=1;" parent="1" source="rzi5aH2cpVTfVcX3buW6-163" target="rzi5aH2cpVTfVcX3buW6-164" edge="1">
          <mxGeometry relative="1" as="geometry" />
        </mxCell>
        <mxCell id="rzi5aH2cpVTfVcX3buW6-163" value="BitSetLink" style="rounded=0;whiteSpace=wrap;html=1;labelBackgroundColor=none;strokeWidth=1;fontSize=14;fillColor=#dae8fc;strokeColor=#6c8ebf;" parent="1" vertex="1">
          <mxGeometry x="1515" y="480" width="125" height="40" as="geometry" />
        </mxCell>
        <mxCell id="rzi5aH2cpVTfVcX3buW6-169" style="edgeStyle=orthogonalEdgeStyle;rounded=0;orthogonalLoop=1;jettySize=auto;html=1;exitX=1;exitY=0.5;exitDx=0;exitDy=0;entryX=0;entryY=0.5;entryDx=0;entryDy=0;strokeWidth=1;fontSize=14;fontColor=#000000;startArrow=none;startFill=0;endArrow=classicThin;endFill=1;" parent="1" source="rzi5aH2cpVTfVcX3buW6-164" target="rzi5aH2cpVTfVcX3buW6-165" edge="1">
          <mxGeometry relative="1" as="geometry" />
        </mxCell>
        <mxCell id="rzi5aH2cpVTfVcX3buW6-164" value="&lt;b&gt;......&lt;/b&gt;" style="rounded=0;whiteSpace=wrap;html=1;labelBackgroundColor=none;strokeWidth=1;fontSize=14;fillColor=#fff2cc;strokeColor=#d6b656;" parent="1" vertex="1">
          <mxGeometry x="1680" y="480" width="120" height="40" as="geometry" />
        </mxCell>
        <mxCell id="rzi5aH2cpVTfVcX3buW6-170" style="edgeStyle=orthogonalEdgeStyle;rounded=0;orthogonalLoop=1;jettySize=auto;html=1;exitX=1;exitY=0.5;exitDx=0;exitDy=0;entryX=0;entryY=0.5;entryDx=0;entryDy=0;strokeWidth=1;fontSize=14;fontColor=#000000;startArrow=none;startFill=0;endArrow=classicThin;endFill=1;" parent="1" source="rzi5aH2cpVTfVcX3buW6-165" target="rzi5aH2cpVTfVcX3buW6-166" edge="1">
          <mxGeometry relative="1" as="geometry" />
        </mxCell>
        <mxCell id="rzi5aH2cpVTfVcX3buW6-165" value="BitSetLink" style="rounded=0;whiteSpace=wrap;html=1;labelBackgroundColor=none;strokeWidth=1;fontSize=14;fillColor=#dae8fc;strokeColor=#6c8ebf;" parent="1" vertex="1">
          <mxGeometry x="1840" y="480" width="120" height="40" as="geometry" />
        </mxCell>
        <mxCell id="rzi5aH2cpVTfVcX3buW6-166" value="BitSetLink" style="rounded=0;whiteSpace=wrap;html=1;labelBackgroundColor=none;strokeWidth=1;fontSize=14;fillColor=#dae8fc;strokeColor=#6c8ebf;" parent="1" vertex="1">
          <mxGeometry x="2000" y="480" width="120" height="40" as="geometry" />
        </mxCell>
        <mxCell id="rzi5aH2cpVTfVcX3buW6-172" value="&lt;b&gt;BitSet结构&lt;/b&gt;" style="text;html=1;strokeColor=none;fillColor=none;align=left;verticalAlign=middle;whiteSpace=wrap;rounded=0;labelBackgroundColor=none;strokeWidth=1;fontSize=14;fontColor=#000000;" parent="1" vertex="1">
          <mxGeometry x="1320" y="360" width="110" height="30" as="geometry" />
        </mxCell>
        <mxCell id="rzi5aH2cpVTfVcX3buW6-173" value="" style="rounded=0;whiteSpace=wrap;html=1;labelBackgroundColor=none;strokeWidth=1;fontSize=14;fontColor=#000000;" parent="1" vertex="1">
          <mxGeometry x="2200" y="400" width="120" height="60" as="geometry" />
        </mxCell>
      </root>
    </mxGraphModel>
  </diagram>
  <diagram id="hbBDrDTmvKPqPyaHUo-0" name="主流程">
    <mxGraphModel dx="2261" dy="1933" grid="1" gridSize="10" guides="1" tooltips="1" connect="1" arrows="1" fold="1" page="1" pageScale="1" pageWidth="827" pageHeight="1169" math="0" shadow="0">
      <root>
        <mxCell id="0" />
        <mxCell id="1" parent="0" />
        <mxCell id="VxCRkiL96A9yNzBKUiXO-3" style="edgeStyle=orthogonalEdgeStyle;rounded=0;orthogonalLoop=1;jettySize=auto;html=1;exitX=1;exitY=0.5;exitDx=0;exitDy=0;entryX=0;entryY=0.5;entryDx=0;entryDy=0;fontColor=#000000;" edge="1" parent="1" source="VxCRkiL96A9yNzBKUiXO-1" target="VxCRkiL96A9yNzBKUiXO-2">
          <mxGeometry relative="1" as="geometry" />
        </mxCell>
        <mxCell id="VxCRkiL96A9yNzBKUiXO-1" value="&lt;div style=&quot;font-family: Consolas, &amp;quot;Courier New&amp;quot;, monospace; font-size: 14px; line-height: 19px;&quot;&gt;CQueryContext构造函数&lt;/div&gt;" style="rounded=1;whiteSpace=wrap;html=1;fillColor=#fff2cc;strokeColor=#d6b656;" vertex="1" parent="1">
          <mxGeometry x="400" y="160" width="200" height="40" as="geometry" />
        </mxCell>
        <mxCell id="VxCRkiL96A9yNzBKUiXO-5" style="edgeStyle=orthogonalEdgeStyle;rounded=0;orthogonalLoop=1;jettySize=auto;html=1;exitX=1;exitY=0.5;exitDx=0;exitDy=0;entryX=0;entryY=0.5;entryDx=0;entryDy=0;entryPerimeter=0;fontColor=#000000;endArrow=none;endFill=0;dashed=1;" edge="1" parent="1" source="VxCRkiL96A9yNzBKUiXO-2" target="VxCRkiL96A9yNzBKUiXO-4">
          <mxGeometry relative="1" as="geometry" />
        </mxCell>
        <mxCell id="VxCRkiL96A9yNzBKUiXO-2" value="m_pexpr = CExpressionPreprocessor::PexprPreprocess" style="rounded=1;whiteSpace=wrap;html=1;labelBackgroundColor=none;fillColor=#f8cecc;strokeColor=#b85450;" vertex="1" parent="1">
          <mxGeometry x="640" y="160" width="240" height="40" as="geometry" />
        </mxCell>
        <mxCell id="VxCRkiL96A9yNzBKUiXO-4" value="&lt;font style=&quot;font-size: 12px;&quot;&gt;将处理的结果保存在m_pexpr，通过Pexpr()对外的接口可以进行访问&lt;/font&gt;" style="shape=note;whiteSpace=wrap;html=1;backgroundOutline=1;darkOpacity=0.05;labelBackgroundColor=none;fontColor=#000000;align=left;" vertex="1" parent="1">
          <mxGeometry x="920" y="155" width="200" height="50" as="geometry" />
        </mxCell>
        <mxCell id="VxCRkiL96A9yNzBKUiXO-8" style="edgeStyle=orthogonalEdgeStyle;rounded=0;orthogonalLoop=1;jettySize=auto;html=1;exitX=0.5;exitY=0;exitDx=0;exitDy=0;entryX=0.5;entryY=1;entryDx=0;entryDy=0;entryPerimeter=0;fontSize=12;fontColor=#000000;endArrow=none;endFill=0;dashed=1;" edge="1" parent="1" source="VxCRkiL96A9yNzBKUiXO-6" target="VxCRkiL96A9yNzBKUiXO-7">
          <mxGeometry relative="1" as="geometry" />
        </mxCell>
        <mxCell id="VxCRkiL96A9yNzBKUiXO-10" style="edgeStyle=orthogonalEdgeStyle;rounded=0;orthogonalLoop=1;jettySize=auto;html=1;fontSize=12;fontColor=#000000;" edge="1" parent="1" source="VxCRkiL96A9yNzBKUiXO-6" target="VxCRkiL96A9yNzBKUiXO-9">
          <mxGeometry relative="1" as="geometry" />
        </mxCell>
        <mxCell id="VxCRkiL96A9yNzBKUiXO-6" value="&lt;div style=&quot;font-family: Consolas, &amp;quot;Courier New&amp;quot;, monospace; font-size: 14px; line-height: 19px;&quot;&gt;COptimizer::PdxlnOptimize&lt;/div&gt;" style="rounded=1;whiteSpace=wrap;html=1;fillColor=#d5e8d4;strokeColor=#82b366;" vertex="1" parent="1">
          <mxGeometry x="80" width="200" height="39" as="geometry" />
        </mxCell>
        <mxCell id="VxCRkiL96A9yNzBKUiXO-7" value="&lt;font style=&quot;&quot;&gt;&lt;b style=&quot;&quot;&gt;&lt;font style=&quot;font-size: 14px;&quot;&gt;查询优化入口&lt;/font&gt;&lt;/b&gt;&lt;br&gt;&lt;/font&gt;" style="shape=note;whiteSpace=wrap;html=1;backgroundOutline=1;darkOpacity=0.05;labelBackgroundColor=none;fontColor=#000000;align=left;" vertex="1" parent="1">
          <mxGeometry x="80" y="-80" width="200" height="40" as="geometry" />
        </mxCell>
        <mxCell id="VxCRkiL96A9yNzBKUiXO-12" style="edgeStyle=orthogonalEdgeStyle;rounded=0;orthogonalLoop=1;jettySize=auto;html=1;exitX=0.5;exitY=1;exitDx=0;exitDy=0;entryX=0.5;entryY=0;entryDx=0;entryDy=0;fontSize=12;fontColor=#000000;" edge="1" parent="1" source="VxCRkiL96A9yNzBKUiXO-9" target="VxCRkiL96A9yNzBKUiXO-11">
          <mxGeometry relative="1" as="geometry" />
        </mxCell>
        <mxCell id="VxCRkiL96A9yNzBKUiXO-9" value="&lt;div style=&quot;font-family: Consolas, &amp;quot;Courier New&amp;quot;, monospace; font-size: 14px; line-height: 19px;&quot;&gt;CTranslatorDXLToExpr::PexprTranslateQuery&lt;/div&gt;" style="rounded=1;whiteSpace=wrap;html=1;fillColor=#d5e8d4;strokeColor=#82b366;" vertex="1" parent="1">
          <mxGeometry y="80" width="360" height="40" as="geometry" />
        </mxCell>
        <mxCell id="VxCRkiL96A9yNzBKUiXO-13" style="edgeStyle=orthogonalEdgeStyle;rounded=0;orthogonalLoop=1;jettySize=auto;html=1;exitX=1;exitY=0.5;exitDx=0;exitDy=0;entryX=0;entryY=0.5;entryDx=0;entryDy=0;fontSize=12;fontColor=#000000;" edge="1" parent="1" source="VxCRkiL96A9yNzBKUiXO-11" target="VxCRkiL96A9yNzBKUiXO-1">
          <mxGeometry relative="1" as="geometry" />
        </mxCell>
        <mxCell id="VxCRkiL96A9yNzBKUiXO-15" style="rounded=0;orthogonalLoop=1;jettySize=auto;html=1;exitX=1;exitY=0.25;exitDx=0;exitDy=0;fontSize=12;fontColor=#000000;entryX=0;entryY=0.5;entryDx=0;entryDy=0;entryPerimeter=0;endArrow=none;endFill=0;dashed=1;" edge="1" parent="1" source="VxCRkiL96A9yNzBKUiXO-11" target="VxCRkiL96A9yNzBKUiXO-14">
          <mxGeometry relative="1" as="geometry" />
        </mxCell>
        <mxCell id="VxCRkiL96A9yNzBKUiXO-26" style="edgeStyle=none;rounded=0;orthogonalLoop=1;jettySize=auto;html=1;exitX=0.5;exitY=1;exitDx=0;exitDy=0;entryX=0.5;entryY=0;entryDx=0;entryDy=0;fontSize=14;fontColor=#000000;endArrow=classic;endFill=1;" edge="1" parent="1" source="VxCRkiL96A9yNzBKUiXO-11" target="VxCRkiL96A9yNzBKUiXO-16">
          <mxGeometry relative="1" as="geometry" />
        </mxCell>
        <mxCell id="VxCRkiL96A9yNzBKUiXO-11" value="&lt;div style=&quot;font-family: Consolas, &amp;quot;Courier New&amp;quot;, monospace; font-size: 14px; line-height: 19px;&quot;&gt;CQueryContext::PqcGenerate&lt;/div&gt;" style="rounded=1;whiteSpace=wrap;html=1;fillColor=#d5e8d4;strokeColor=#82b366;" vertex="1" parent="1">
          <mxGeometry y="160" width="360" height="40" as="geometry" />
        </mxCell>
        <mxCell id="VxCRkiL96A9yNzBKUiXO-14" value="&lt;font style=&quot;font-size: 12px;&quot;&gt;构造并返回CQueryContext指针&lt;br&gt;&lt;/font&gt;" style="shape=note;whiteSpace=wrap;html=1;backgroundOutline=1;darkOpacity=0.05;labelBackgroundColor=none;fontColor=#000000;align=left;" vertex="1" parent="1">
          <mxGeometry x="-240" y="160" width="200" height="40" as="geometry" />
        </mxCell>
        <mxCell id="VxCRkiL96A9yNzBKUiXO-19" style="edgeStyle=none;rounded=0;orthogonalLoop=1;jettySize=auto;html=1;entryX=0;entryY=0.5;entryDx=0;entryDy=0;fontSize=12;fontColor=#000000;endArrow=classic;endFill=1;" edge="1" parent="1" source="VxCRkiL96A9yNzBKUiXO-16" target="VxCRkiL96A9yNzBKUiXO-17">
          <mxGeometry relative="1" as="geometry" />
        </mxCell>
        <mxCell id="VxCRkiL96A9yNzBKUiXO-35" style="edgeStyle=none;rounded=0;orthogonalLoop=1;jettySize=auto;html=1;exitX=0.5;exitY=1;exitDx=0;exitDy=0;entryX=0.5;entryY=0;entryDx=0;entryDy=0;fontSize=14;fontColor=#000000;endArrow=classic;endFill=1;" edge="1" parent="1" source="VxCRkiL96A9yNzBKUiXO-16" target="VxCRkiL96A9yNzBKUiXO-27">
          <mxGeometry relative="1" as="geometry" />
        </mxCell>
        <mxCell id="VxCRkiL96A9yNzBKUiXO-16" value="&lt;div style=&quot;font-family: Consolas, &amp;quot;Courier New&amp;quot;, monospace; font-size: 14px; line-height: 19px;&quot;&gt;PexprOptimize&lt;/div&gt;" style="rounded=1;whiteSpace=wrap;html=1;fillColor=#d5e8d4;strokeColor=#82b366;" vertex="1" parent="1">
          <mxGeometry y="240" width="360" height="40" as="geometry" />
        </mxCell>
        <mxCell id="VxCRkiL96A9yNzBKUiXO-20" style="edgeStyle=none;rounded=0;orthogonalLoop=1;jettySize=auto;html=1;exitX=0.5;exitY=1;exitDx=0;exitDy=0;entryX=0.5;entryY=0;entryDx=0;entryDy=0;fontSize=12;fontColor=#000000;endArrow=classic;endFill=1;" edge="1" parent="1" source="VxCRkiL96A9yNzBKUiXO-17" target="VxCRkiL96A9yNzBKUiXO-18">
          <mxGeometry relative="1" as="geometry" />
        </mxCell>
        <mxCell id="VxCRkiL96A9yNzBKUiXO-17" value="&lt;div style=&quot;font-family: Consolas, &amp;quot;Courier New&amp;quot;, monospace; font-size: 14px; line-height: 19px;&quot;&gt;&lt;div style=&quot;line-height: 19px;&quot;&gt;CEngine eng&lt;/div&gt;&lt;/div&gt;" style="rounded=1;whiteSpace=wrap;html=1;fillColor=#fff2cc;strokeColor=#d6b656;" vertex="1" parent="1">
          <mxGeometry x="400" y="240" width="200" height="40" as="geometry" />
        </mxCell>
        <mxCell id="VxCRkiL96A9yNzBKUiXO-23" style="edgeStyle=none;rounded=0;orthogonalLoop=1;jettySize=auto;html=1;exitX=0.5;exitY=1;exitDx=0;exitDy=0;entryX=0.5;entryY=0;entryDx=0;entryDy=0;fontSize=12;fontColor=#000000;endArrow=classic;endFill=1;" edge="1" parent="1" source="VxCRkiL96A9yNzBKUiXO-18" target="VxCRkiL96A9yNzBKUiXO-22">
          <mxGeometry relative="1" as="geometry" />
        </mxCell>
        <mxCell id="VxCRkiL96A9yNzBKUiXO-18" value="&lt;div style=&quot;font-family: Consolas, &amp;quot;Courier New&amp;quot;, monospace; font-size: 14px; line-height: 19px;&quot;&gt;&lt;div style=&quot;line-height: 19px;&quot;&gt;&lt;span style=&quot;background-color: initial;&quot;&gt;eng.Optimize()&lt;/span&gt;&lt;br&gt;&lt;/div&gt;&lt;/div&gt;" style="rounded=1;whiteSpace=wrap;html=1;fillColor=#fff2cc;strokeColor=#d6b656;" vertex="1" parent="1">
          <mxGeometry x="400" y="400" width="200" height="40" as="geometry" />
        </mxCell>
        <mxCell id="VxCRkiL96A9yNzBKUiXO-21" value="&lt;div style=&quot;font-family: Consolas, &amp;quot;Courier New&amp;quot;, monospace; font-size: 14px; line-height: 19px;&quot;&gt;&lt;div style=&quot;line-height: 19px;&quot;&gt;eng.Init()&lt;/div&gt;&lt;/div&gt;" style="rounded=1;whiteSpace=wrap;html=1;fillColor=#fff2cc;strokeColor=#d6b656;" vertex="1" parent="1">
          <mxGeometry x="400" y="320" width="200" height="40" as="geometry" />
        </mxCell>
        <mxCell id="VxCRkiL96A9yNzBKUiXO-22" value="&lt;div style=&quot;line-height: 19px;&quot;&gt;&lt;div style=&quot;line-height: 19px;&quot;&gt;&lt;font face=&quot;Consolas, Courier New, monospace&quot;&gt;CExpression *pexprPlan = eng.PexprExtractPlan()&lt;/font&gt;&lt;br&gt;&lt;/div&gt;&lt;/div&gt;" style="rounded=1;whiteSpace=wrap;html=1;fillColor=#fff2cc;strokeColor=#d6b656;" vertex="1" parent="1">
          <mxGeometry x="400" y="480" width="200" height="40" as="geometry" />
        </mxCell>
        <mxCell id="VxCRkiL96A9yNzBKUiXO-25" style="edgeStyle=none;rounded=0;orthogonalLoop=1;jettySize=auto;html=1;entryX=0;entryY=0.5;entryDx=0;entryDy=0;fontSize=12;fontColor=#000000;endArrow=none;endFill=0;dashed=1;" edge="1" parent="1" target="VxCRkiL96A9yNzBKUiXO-16">
          <mxGeometry relative="1" as="geometry">
            <mxPoint x="-90" y="260" as="sourcePoint" />
          </mxGeometry>
        </mxCell>
        <mxCell id="VxCRkiL96A9yNzBKUiXO-24" value="&lt;font style=&quot;font-size: 12px;&quot;&gt;将逻辑表达式树转换为物理表达式树&lt;br&gt;&lt;/font&gt;" style="shape=note;whiteSpace=wrap;html=1;backgroundOutline=1;darkOpacity=0.05;labelBackgroundColor=none;fontColor=#000000;align=left;" vertex="1" parent="1">
          <mxGeometry x="-240" y="240" width="200" height="40" as="geometry" />
        </mxCell>
        <mxCell id="VxCRkiL96A9yNzBKUiXO-34" style="edgeStyle=none;rounded=0;orthogonalLoop=1;jettySize=auto;html=1;exitX=0;exitY=0.5;exitDx=0;exitDy=0;entryX=1;entryY=0.5;entryDx=0;entryDy=0;fontSize=14;fontColor=#000000;endArrow=classic;endFill=1;" edge="1" parent="1" source="VxCRkiL96A9yNzBKUiXO-27" target="VxCRkiL96A9yNzBKUiXO-29">
          <mxGeometry relative="1" as="geometry" />
        </mxCell>
        <mxCell id="VxCRkiL96A9yNzBKUiXO-27" value="&lt;div style=&quot;font-family: Consolas, &amp;quot;Courier New&amp;quot;, monospace; font-size: 14px; line-height: 19px;&quot;&gt;CreateDXLNode&lt;/div&gt;" style="rounded=1;whiteSpace=wrap;html=1;fillColor=#d5e8d4;strokeColor=#82b366;" vertex="1" parent="1">
          <mxGeometry y="320" width="360" height="40" as="geometry" />
        </mxCell>
        <mxCell id="VxCRkiL96A9yNzBKUiXO-28" style="edgeStyle=none;rounded=0;orthogonalLoop=1;jettySize=auto;html=1;exitX=0.5;exitY=1;exitDx=0;exitDy=0;entryX=0.5;entryY=0;entryDx=0;entryDy=0;fontSize=12;fontColor=#000000;endArrow=classic;endFill=1;" edge="1" parent="1" source="VxCRkiL96A9yNzBKUiXO-29" target="VxCRkiL96A9yNzBKUiXO-32">
          <mxGeometry relative="1" as="geometry" />
        </mxCell>
        <mxCell id="VxCRkiL96A9yNzBKUiXO-29" value="&lt;div style=&quot;font-family: Consolas, &amp;quot;Courier New&amp;quot;, monospace; font-size: 14px; line-height: 19px;&quot;&gt;&lt;div style=&quot;line-height: 19px;&quot;&gt;CTranslatorExprToDXL ptrexprtodxl&lt;/div&gt;&lt;/div&gt;" style="rounded=1;whiteSpace=wrap;html=1;fillColor=#fff2cc;strokeColor=#d6b656;" vertex="1" parent="1">
          <mxGeometry x="-320" y="320" width="280" height="40" as="geometry" />
        </mxCell>
        <mxCell id="VxCRkiL96A9yNzBKUiXO-37" style="edgeStyle=none;rounded=0;orthogonalLoop=1;jettySize=auto;html=1;exitX=0;exitY=0.5;exitDx=0;exitDy=0;entryX=1;entryY=0.5;entryDx=0;entryDy=0;fontSize=14;fontColor=#000000;endArrow=classic;endFill=1;" edge="1" parent="1" source="VxCRkiL96A9yNzBKUiXO-32" target="VxCRkiL96A9yNzBKUiXO-36">
          <mxGeometry relative="1" as="geometry" />
        </mxCell>
        <mxCell id="VxCRkiL96A9yNzBKUiXO-32" value="&lt;div style=&quot;font-family: Consolas, &amp;quot;Courier New&amp;quot;, monospace; font-size: 14px; line-height: 19px;&quot;&gt;&lt;div style=&quot;line-height: 19px;&quot;&gt;ptrexprtodxl.PdxlnTranslate&lt;/div&gt;&lt;/div&gt;" style="rounded=1;whiteSpace=wrap;html=1;fillColor=#fff2cc;strokeColor=#d6b656;" vertex="1" parent="1">
          <mxGeometry x="-320" y="400" width="280" height="40" as="geometry" />
        </mxCell>
        <mxCell id="VxCRkiL96A9yNzBKUiXO-39" style="edgeStyle=none;rounded=0;orthogonalLoop=1;jettySize=auto;html=1;exitX=0;exitY=0.5;exitDx=0;exitDy=0;entryX=1;entryY=0.5;entryDx=0;entryDy=0;fontSize=14;fontColor=#000000;endArrow=classic;endFill=1;" edge="1" parent="1" source="VxCRkiL96A9yNzBKUiXO-36" target="VxCRkiL96A9yNzBKUiXO-38">
          <mxGeometry relative="1" as="geometry" />
        </mxCell>
        <mxCell id="VxCRkiL96A9yNzBKUiXO-36" value="&lt;div style=&quot;font-family: Consolas, &amp;quot;Courier New&amp;quot;, monospace; font-size: 14px; line-height: 19px;&quot;&gt;&lt;div style=&quot;line-height: 19px;&quot;&gt;&lt;div style=&quot;line-height: 19px;&quot;&gt;CreateDXLNode&lt;/div&gt;&lt;/div&gt;&lt;/div&gt;" style="rounded=1;whiteSpace=wrap;html=1;fillColor=#f8cecc;strokeColor=#b85450;" vertex="1" parent="1">
          <mxGeometry x="-520" y="400" width="160" height="40" as="geometry" />
        </mxCell>
        <mxCell id="VxCRkiL96A9yNzBKUiXO-38" value="&lt;div style=&quot;font-family: Consolas, &amp;quot;Courier New&amp;quot;, monospace; font-size: 14px; line-height: 19px;&quot;&gt;&lt;div style=&quot;line-height: 19px;&quot;&gt;&lt;div style=&quot;line-height: 19px;&quot;&gt;CTranslatorExprToDXL::&lt;/div&gt;&lt;div style=&quot;line-height: 19px;&quot;&gt;PdxlnCorrelatedNLJoin&lt;/div&gt;&lt;/div&gt;&lt;/div&gt;" style="rounded=1;whiteSpace=wrap;html=1;fillColor=#f8cecc;strokeColor=#b85450;" vertex="1" parent="1">
          <mxGeometry x="-800" y="360" width="240" height="40" as="geometry" />
        </mxCell>
      </root>
    </mxGraphModel>
  </diagram>
</mxfile>
